<?xml version="1.0" encoding="UTF-8" standalone="no"?>
<!-- Created with Inkscape (http://www.inkscape.org/) -->

<svg
   width="128"
   height="24"
   viewBox="0 0 33.866636 6.35"
   version="1.1"
   id="svg1"
   xml:space="preserve"
   inkscape:version="1.4 (86a8ad7, 2024-10-11)"
   sodipodi:docname="DiscordLogo.svg"
   xmlns:inkscape="http://www.inkscape.org/namespaces/inkscape"
   xmlns:sodipodi="http://sodipodi.sourceforge.net/DTD/sodipodi-0.dtd"
   xmlns="http://www.w3.org/2000/svg"
   xmlns:svg="http://www.w3.org/2000/svg"><sodipodi:namedview
     id="namedview1"
     pagecolor="#505050"
     bordercolor="#eeeeee"
     borderopacity="1"
     inkscape:showpageshadow="0"
     inkscape:pageopacity="0"
     inkscape:pagecheckerboard="0"
     inkscape:deskcolor="#505050"
     inkscape:document-units="mm"
     showguides="false"
     inkscape:zoom="8.2142634"
     inkscape:cx="53.382753"
     inkscape:cy="8.8261109"
     inkscape:window-width="1920"
     inkscape:window-height="1017"
     inkscape:window-x="-8"
     inkscape:window-y="-8"
     inkscape:window-maximized="1"
     inkscape:current-layer="layer1" /><defs
     id="defs1"><inkscape:path-effect
       effect="bspline"
       id="path-effect10"
       is_visible="true"
       lpeversion="1.3"
       weight="33.333333"
       steps="2"
       helper_size="0"
       apply_no_weight="true"
       apply_with_weight="true"
       only_selected="false"
       uniform="false" /><inkscape:path-effect
       effect="bspline"
       id="path-effect5"
       is_visible="true"
       lpeversion="1.3"
       weight="33.333333"
       steps="2"
       helper_size="0"
       apply_no_weight="true"
       apply_with_weight="true"
       only_selected="false"
       uniform="false" /><inkscape:path-effect
       effect="bspline"
       id="path-effect4"
       is_visible="true"
       lpeversion="1.3"
       weight="33.333333"
       steps="2"
       helper_size="0"
       apply_no_weight="true"
       apply_with_weight="true"
       only_selected="false"
       uniform="false" /><inkscape:path-effect
       effect="bspline"
       id="path-effect1"
       is_visible="true"
       lpeversion="1.3"
       weight="33.333333"
       steps="2"
       helper_size="0"
       apply_no_weight="true"
       apply_with_weight="true"
       only_selected="false"
       uniform="false" /><inkscape:path-effect
       effect="bspline"
       id="path-effect1-2"
       is_visible="true"
       lpeversion="1.3"
       weight="33.333333"
       steps="2"
       helper_size="0"
       apply_no_weight="true"
       apply_with_weight="true"
       only_selected="false"
       uniform="false" /></defs><g
     inkscape:label="Layer 1"
     inkscape:groupmode="layer"
     id="layer1"><path
       style="opacity:0.507092;fill:#ffffff;stroke-width:0.264583"
       d="m 88.371166,55.57362 c 4.707055,0.04555 9.414109,0.0911 12.059754,0.103142 2.64565,0.01204 3.22989,-0.0094 5.05848,0.630191 1.82858,0.639625 4.90135,1.940293 6.32837,4.524299 1.42701,2.584007 1.25415,5.639482 1.33992,10.581266 0.0858,4.941784 0.33757,7.94541 -1.28915,11.180326 -1.62673,3.234915 -4.7644,4.760709 -8.87784,5.398993 -4.113434,0.638284 -9.423703,0.321827 -14.573924,0.01491 0.04555,-2.520552 0.0911,-5.041105 0.136658,-7.561657 4.197532,-0.0089 8.395067,-0.01779 11.154657,-0.06477 2.759589,-0.04699 4.081239,-0.132061 4.692819,-2.564653 0.61159,-2.432593 0.51311,-7.212701 0.21159,-10.049381 -0.30152,-2.836681 -0.8061,-3.729938 -2.21821,-4.170275 -1.41212,-0.440336 -3.731779,-0.427756 -6.051439,-0.415176 0.0037,4.452611 0.0074,8.905221 0.01105,13.357832 0,0 -8.02823,-7.117187 -8.02823,-7.117187 z"
       id="path1"
       inkscape:path-effect="#path-effect1"
       inkscape:original-d="m 88.371166,55.57362 c 0,0 9.414109,0.0911 14.121164,0.136654 0.58424,-0.02147 1.16848,-0.04295 1.75275,-0.06442 3.0729,1.300726 6.14567,2.60139 9.2185,3.902086 -0.21879,3.867319 -0.39166,6.922794 -0.65639,11.601947 0.43628,5.204415 0.68807,8.208041 1.08176,12.904333 -3.64714,1.77354 -6.78481,3.299334 -10.02151,4.873282 -4.990174,-0.297382 -15.450664,-0.920757 -15.450664,-0.920757 0,0 0.0911,-5.041105 0.136658,-7.561657 0,0 8.395067,-0.01779 12.592596,-0.02668 1.32165,-0.08508 2.6433,-0.170152 3.96494,-0.255228 -0.0985,-4.780108 -0.19695,-9.560217 -0.29542,-14.340325 -0.50457,-0.893254 -1.00915,-1.786509 -1.51372,-2.679763 -2.31966,0.01258 -6.958979,0.03774 -6.958979,0.03774 0.0037,4.452611 0.01105,13.357832 0.01105,13.357832 l -8.02823,-7.117187 z"
       sodipodi:nodetypes="csscccccccccccccc"
       transform="matrix(0.18764418,0,0,0.19353833,-16.493683,-10.744238)" /><path
       style="opacity:0.507092;fill:#ffffff;stroke-width:0.0503586"
       d="M 5.5308803,0.01138802 7.0781548,0.0238275 7.0902739,6.3293138 5.5308992,6.3044445 Z"
       id="path2" /><path
       style="opacity:0.507092;fill:#ffffff;stroke-width:0.0499017"
       d="M 11.072308,1.7966183 12.059559,1.0108037 11.897154,0.80787302 c 0,0 -0.236559,-0.25357185 -0.376099,-0.35404867 C 11.352912,0.33275077 11.168589,0.23002518 10.974011,0.16022401 10.73732,0.07531362 10.485329,0.02917582 10.234644,0.01342287 10.030826,6.1504631e-4 9.6534113,0.05228633 9.6234924,0.05660025 9.5935734,0.06090459 9.1473827,0.13937759 8.9268629,0.23362457 8.7448117,0.311428 8.5748795,0.42154942 8.4225579,0.54881456 8.2764757,0.67085328 8.1403728,0.81083824 8.0379098,0.97194602 7.9468274,1.1151965 7.882369,1.2774263 7.8413157,1.4425706 c -0.044973,0.1808457 -0.053305,0.3705297 -0.051317,0.5569795 0.00189,0.1883284 0.00284,0.3834014 0.064099,0.5612972 0.046204,0.1342993 0.1367751,0.249718 0.222243,0.3626831 0.088715,0.1173088 0.1920779,0.2233352 0.2991613,0.3238245 0.1299203,0.121921 0.2595565,0.2497717 0.4145576,0.3367788 0.1543856,0.086661 0.3295536,0.1304226 0.5000349,0.1770232 0.1806973,0.049395 0.369386,0.063427 0.5513237,0.1079425 0.1730658,0.042346 0.3527688,0.072323 0.5128538,0.1511179 0.11195,0.055105 0.244995,0.1091019 0.303441,0.2202018 0.06893,0.1309562 0.08531,0.3157763 0.01278,0.4447192 -0.05643,0.1002708 -0.189995,0.1347078 -0.299171,0.1683888 -0.177753,0.054837 -0.370303,0.062193 -0.5555926,0.047491 C 9.6373062,4.8868619 9.459269,4.8416758 9.2943265,4.7714882 9.1799338,4.7228108 9.0749713,4.6512449 8.978066,4.5728761 8.8860368,4.4984588 8.7301836,4.3181336 8.7301836,4.3181336 c 0,0.017274 -0.9957904,0.9326158 -0.9957904,0.9326158 0,0 0.1619128,0.1959557 0.2521526,0.2849658 0.1446146,0.1426469 0.2938686,0.2832537 0.4615663,0.3972251 0.1744673,0.1185703 0.3612905,0.2237646 0.5598729,0.2936013 0.1274491,0.044822 0.2639402,0.057965 0.3974583,0.077718 0.1558347,0.023052 0.3126347,0.0464 0.4701164,0.047491 0.2159083,0.00153 0.4340803,-0.011163 0.6453493,-0.056128 0.172366,-0.036692 0.339041,-0.100483 0.500035,-0.1727068 0.177166,-0.079486 0.487206,-0.2633772 0.508576,-0.2849657 0.0214,-0.021588 0.214337,-0.196525 0.30344,-0.3108724 0.12032,-0.1543873 0.234201,-0.31893 0.307721,-0.5008488 0.05681,-0.1406239 0.0983,-0.4188137 0.0983,-0.4447192 0,-0.025902 0.03039,-0.3353419 0.0085,-0.5008498 C 12.229211,3.9425106 12.185181,3.8077682 12.132094,3.6791171 12.070002,3.5286621 11.995299,3.380957 11.897049,3.2516669 11.824619,3.1563973 11.732893,3.0769803 11.640627,3.0012429 11.565829,2.9398247 11.485209,2.8851146 11.401294,2.8371719 11.274233,2.764591 11.140298,2.7038338 11.003826,2.6515121 10.860566,2.596579 10.711491,2.5582799 10.563629,2.5176641 10.406583,2.474525 10.246668,2.4427207 10.089234,2.4010872 9.9718684,2.370048 9.8499108,2.3509655 9.7387845,2.3017811 9.6268819,2.2522525 9.5054446,2.201928 9.4267937,2.1074858 9.3675239,2.0363207 9.3311004,1.9411717 9.3242266,1.8484264 c -0.00568,-0.075192 0.015717,-0.1538957 0.051317,-0.2202016 0.040334,-0.075192 0.1071496,-0.1348389 0.1752248,-0.1856599 0.06656,-0.04973 0.1424563,-0.089769 0.2222339,-0.1122592 0.085307,-0.024057 0.1764177,-0.024774 0.2649717,-0.021588 0.103703,0.00373 0.20664,0.023798 0.30772,0.047491 0.101819,0.023874 0.282072,0.090669 0.299161,0.094992 0.01714,0.0043 0.222243,0.1640702 0.252153,0.1683888 0.02992,0.0043 0.175225,0.1770234 0.175225,0.1770234 z"
       id="path3"
       sodipodi:nodetypes="cccsssssssaaaaaaasssaaaaaccsaaaaaasssssssssssssaaasssssscc" /><path
       style="opacity:0.507092;fill:#ffffff;stroke-width:0.264583"
       d="m 174.52545,64.841583 c 1.11983,-0.457419 3.35948,-1.372258 5.59913,-2.287096 0.0152,-0.0911 0.0303,-0.182222 -0.61881,-1.188179 -0.64914,-1.005957 -1.96253,-2.9267 -3.83778,-4.234433 -1.87526,-1.307734 -4.31225,-2.002389 -6.77589,-2.042242 -2.46363,-0.03985 -4.95377,0.575089 -6.91063,1.512717 -1.95686,0.937627 -3.38033,2.197876 -4.30846,3.51321 -0.92813,1.315333 -1.36087,2.685668 -1.58672,3.509406 -0.22586,0.823738 -0.24482,1.100839 -0.26379,1.377949 0.01,3.940602 0.0196,7.881204 0.0294,10.342159 0.01,2.460955 0.0196,3.442258 0.0836,4.217442 0.064,0.775184 0.18207,1.34422 0.75088,2.416592 0.56881,1.072372 1.58832,2.648064 3.067,3.795404 1.47868,1.147339 3.41651,1.866317 5.4075,2.372722 1.99098,0.506404 4.0351,0.800231 6.15251,0.252881 2.11742,-0.547351 4.30811,-1.935873 5.76494,-3.114507 1.45684,-1.178633 2.17979,-2.147351 2.58908,-2.768561 0.40929,-0.621211 0.50488,-0.894864 0.60047,-1.168524 -1.15835,-0.581668 -2.3167,-1.163336 -3.51173,-1.743384 -1.19502,-0.580048 -2.42672,-1.158475 -3.65842,-1.736902 -0.10737,0.220102 -0.21473,0.440208 -0.42947,0.909946 -0.21474,0.469739 -0.53684,1.189087 -2.09635,1.661503 -1.55951,0.472416 -4.35644,0.697889 -5.65022,-0.794519 -1.29377,-1.492407 -1.08441,-4.702694 -0.87504,-7.91298 0.0161,-1.637354 0.0322,-3.274708 0.0483,-4.681233 0.0161,-1.406525 0.0322,-2.582175 1.07637,-3.331066 1.04417,-0.748891 3.11632,-1.070987 4.57384,-0.848191 1.45752,0.222795 2.30034,0.990458 2.80796,1.485827 0.50762,0.495369 0.68002,0.718421 0.85243,0.941478 0,0 4e-5,0 1.11986,-0.457419 z"
       id="path4"
       inkscape:path-effect="#path-effect4"
       inkscape:original-d="m 173.40563,65.299002 c 2.23965,-0.914838 4.4793,-1.829677 6.71895,-2.744515 0,0 0.0304,-0.182211 0.0455,-0.273315 -1.31345,-1.920819 -2.62684,-3.841564 -3.94026,-5.762347 -2.43709,-0.694682 -4.87408,-1.38934 -7.31112,-2.084009 -2.49023,0.614966 -4.98037,1.229908 -7.47056,1.84486 -1.42353,1.260303 -2.847,2.520553 -4.27051,3.78083 -0.43275,1.370388 -0.86549,2.740721 -1.29823,4.11108 -0.019,0.277116 -0.0569,0.831329 -0.0569,0.831329 0.01,3.940602 0.0196,7.881204 0.0294,11.821806 0.01,0.981306 0.0196,1.962612 0.0295,2.943917 0.11811,0.569061 0.23621,1.138097 0.35431,1.707145 1.01952,1.575695 2.03903,3.151391 3.05855,4.727086 1.93784,0.718981 3.87567,1.437961 5.81351,2.156942 2.04413,0.293827 4.08825,0.587654 6.13238,0.881481 2.1907,-1.388526 4.38139,-2.777052 6.57209,-4.165578 0.72297,-0.968737 1.44592,-1.937457 2.1689,-2.906211 0.0956,-0.273665 0.28678,-0.82098 0.28678,-0.82098 0,0 -2.3167,-1.163335 -3.47505,-1.745005 -1.2317,-0.578429 -3.6951,-1.735281 -3.6951,-1.735281 0,0 -0.21474,0.440205 -0.3221,0.660307 -0.32211,0.719378 -0.64421,1.438725 -0.96631,2.158087 -2.79692,0.225472 -5.59385,0.450943 -8.39077,0.676415 0.20937,-3.210286 0.6281,-9.630859 0.6281,-9.630859 0,0 0.0322,-3.274708 0.0483,-4.912061 0.0161,-1.175697 0.0322,-2.351347 0.0483,-3.52702 2.07224,-0.322109 4.14439,-0.644205 6.21658,-0.966306 0.84285,0.767691 1.68567,1.535353 2.5285,2.303031 0.17241,0.223062 0.51722,0.669171 0.51722,0.669171 z"
       sodipodi:nodetypes="cccccccccccaaaaacccccaaccccccc"
       transform="matrix(0.18764418,0,0,0.18764418,-16.493683,-10.325518)" /><path
       id="path5"
       style="opacity:0.507092;fill:#ffffff;stroke-width:0.0499023"
       d="m 20.49701,0.01310236 c -0.312965,-0.00998634 -0.631403,0.02411452 -0.927005,0.09032665 -0.591212,0.13241086 -1.091237,0.392975 -1.382568,0.70025876 -0.291332,0.30728373 -0.373902,0.66136153 -0.415221,0.83839063 -0.04128,0.1770289 -0.04128,0.1769868 -0.04554,0.5857362 l -0.0214,2.0437604 c 0.0057,0.282095 0.01146,0.5642101 0.297789,0.9715256 0.286351,0.4073166 0.853296,0.9398411 1.665331,1.0636135 0.812025,0.1237732 1.869112,-0.161225 2.426135,-0.5987655 0.557013,-0.4375415 0.613935,-1.0276118 0.670914,-1.617708 l 0.0085,-2.1588702 C 22.771126,1.7212392 22.768286,1.5110679 22.560349,1.1829124 22.352356,0.85475777 21.939171,0.40860933 21.391398,0.18767968 21.117516,0.07721486 20.810033,0.02308965 20.497067,0.01310427 Z m 0.745229,3.28804314 -0.02973,0.8457226 c 0,0 -0.08521,0.4203322 -0.237117,0.5470937 -0.191832,0.160036 -0.479177,0.1678844 -0.727949,0.1663405 -0.2344,-0.00143 -0.495131,-0.02487 -0.683933,-0.165227 C 19.411321,4.5819311 19.273647,4.2029035 19.273647,4.2029035 l -0.0019,-0.8792639 0.01572,-1.2431465 c 0,0 0.109024,-0.3326676 0.23529,-0.4399587 0.200646,-0.1704813 0.483674,-0.256538 0.745815,-0.25229 0.269006,0.0044 0.562155,0.095873 0.756751,0.2835691 0.132439,0.1277419 0.214678,0.5108311 0.214678,0.5108311 z"
       sodipodi:nodetypes="ssssccsssccssssccaaacccaaacc" /><path
       style="opacity:0.507092;fill:#ffffff;stroke-width:0.264583"
       d="m 213.54846,87.961196 c 0,-10.780675 0,-21.561351 0,-32.342026 4.98037,-0.04555 9.96074,-0.0911 13.39994,0.06833 3.43921,0.159436 5.33714,0.523838 7.1289,1.776546 1.79175,1.252709 3.47711,3.393574 4.168,5.678821 0.69089,2.285246 0.38723,4.7146 -0.0835,6.726524 -0.47071,2.011924 -1.10842,3.606189 -2.08781,4.699462 -0.97939,1.093273 -2.30037,1.685437 -3.62138,2.277615 2.86978,3.780826 5.73957,7.561656 8.60935,11.342484 0,0 -10.34034,-0.04555 -10.34034,-0.04555 0,0 -7.10613,-10.294786 -7.10613,-10.294786 0,0 -1.59433,-0.04555 -1.59433,-0.04555 0,0 -0.13665,10.294784 -0.13665,10.294784 z m 8.46511,-23.413803 c -0.008,1.184356 -0.0228,3.553067 -0.038,5.921779 1.76135,0.04555 3.5227,0.0911 4.79057,0.02277 1.26787,-0.06833 2.04225,-0.250535 2.54333,-0.554216 0.50107,-0.303682 0.72883,-0.728835 0.88826,-1.237501 0.15944,-0.508665 0.25054,-1.100843 0.28091,-1.700614 0.0304,-0.599771 10e-6,-1.207129 -0.22775,-1.723387 -0.22776,-0.516258 -0.65292,-0.941415 -1.12362,-1.252687 -0.47071,-0.311273 -0.98696,-0.508663 -2.17891,-0.599768 -1.19194,-0.09111 -3.05956,-0.07592 -4.92719,-0.06074 0,0 0,2e-6 -0.008,1.184358 z"
       id="path10"
       inkscape:path-effect="#path-effect10"
       inkscape:original-d="m 213.54846,87.961196 c 0,0 0,-21.561351 0,-32.342026 0,0 9.96074,-0.0911 14.94111,-0.136654 1.89804,0.364423 3.79597,0.728826 5.69402,1.09325 1.68546,2.140993 3.37082,4.28186 5.05629,6.422854 -0.30369,2.429496 -0.60736,4.858849 -0.91104,7.288343 -0.63774,1.594356 -1.27545,3.188619 -1.91319,4.782975 -1.32104,0.592189 -3.96303,1.776533 -3.96303,1.776533 2.86978,3.780828 8.60935,11.342484 8.60935,11.342484 l -10.34034,-0.04555 -7.10613,-10.294786 -1.59433,-0.04555 -0.13665,10.294784 z m 8.47271,-24.598159 c -0.0152,2.368712 -0.0304,4.737423 -0.0456,7.106135 0,0 3.5227,0.0911 5.28405,0.136656 0.77439,-0.182208 1.54877,-0.364417 2.32316,-0.546625 0.22776,-0.425154 0.45552,-0.850307 0.68328,-1.275461 0.0911,-0.592178 0.18221,-1.184355 0.27332,-1.776533 -0.0304,-0.607362 -0.0607,-1.214724 -0.0911,-1.822086 -0.42515,-0.425153 -0.85031,-0.850307 -1.27546,-1.27546 -0.51626,-0.197393 -1.03251,-0.394785 -1.54877,-0.592178 -1.86763,0.01518 -5.60288,0.04555 -5.60288,0.04555 z"
       sodipodi:nodetypes="ccccccccccccccccaaaaaaacc"
       transform="matrix(0.18764418,0,0,0.19406396,-16.493683,-10.773954)" /><path
       style="opacity:0.507092;fill:#ffffff;stroke-width:0.264583"
       d="m 88.371166,55.57362 c 4.707055,0.04555 9.414109,0.0911 12.059754,0.103142 2.64565,0.01204 3.22989,-0.0094 5.05848,0.630191 1.82858,0.639625 4.90135,1.940293 6.32837,4.524299 1.42701,2.584007 1.25415,5.639482 1.33992,10.581266 0.0858,4.941784 0.33757,7.94541 -1.28915,11.180326 -1.62673,3.234915 -4.7644,4.760709 -8.87784,5.398993 -4.113434,0.638284 -9.423703,0.321827 -14.573924,0.01491 0.04555,-2.520552 0.0911,-5.041105 0.136658,-7.561657 4.197532,-0.0089 8.395067,-0.01779 11.154657,-0.06477 2.759589,-0.04699 4.081239,-0.132061 4.692819,-2.564653 0.61159,-2.432593 0.51311,-7.212701 0.21159,-10.049381 -0.30152,-2.836681 -0.8061,-3.729938 -2.21821,-4.170275 -1.41212,-0.440336 -3.731779,-0.427756 -6.051439,-0.415176 0.0037,4.452611 0.0074,8.905221 0.01105,13.357832 0,0 -8.02823,-7.117187 -8.02823,-7.117187 z"
       id="path1-5"
       inkscape:path-effect="#path-effect1-2"
       inkscape:original-d="m 88.371166,55.57362 c 0,0 9.414109,0.0911 14.121164,0.136654 0.58424,-0.02147 1.16848,-0.04295 1.75275,-0.06442 3.0729,1.300726 6.14567,2.60139 9.2185,3.902086 -0.21879,3.867319 -0.39166,6.922794 -0.65639,11.601947 0.43628,5.204415 0.68807,8.208041 1.08176,12.904333 -3.64714,1.77354 -6.78481,3.299334 -10.02151,4.873282 -4.990174,-0.297382 -15.450664,-0.920757 -15.450664,-0.920757 0,0 0.0911,-5.041105 0.136658,-7.561657 0,0 8.395067,-0.01779 12.592596,-0.02668 1.32165,-0.08508 2.6433,-0.170152 3.96494,-0.255228 -0.0985,-4.780108 -0.19695,-9.560217 -0.29542,-14.340325 -0.50457,-0.893254 -1.00915,-1.786509 -1.51372,-2.679763 -2.31966,0.01258 -6.958979,0.03774 -6.958979,0.03774 0.0037,4.452611 0.01105,13.357832 0.01105,13.357832 l -8.02823,-7.117187 z"
       sodipodi:nodetypes="csscccccccccccccc"
       transform="matrix(0.18764418,0,0,0.19353833,12.54897,-10.744238)" /></g></svg>
