<?xml version="1.0" encoding="UTF-8" standalone="no"?>
<!-- Created with Inkscape (http://www.inkscape.org/) -->

<svg
   width="24"
   height="24"
   viewBox="0 0 6.3500001 6.3500001"
   version="1.1"
   id="svg1"
   xml:space="preserve"
   sodipodi:docname="MarkOfTheKindredCorrect.svg"
   inkscape:version="1.4 (86a8ad7, 2024-10-11)"
   xmlns:inkscape="http://www.inkscape.org/namespaces/inkscape"
   xmlns:sodipodi="http://sodipodi.sourceforge.net/DTD/sodipodi-0.dtd"
   xmlns="http://www.w3.org/2000/svg"
   xmlns:svg="http://www.w3.org/2000/svg"><sodipodi:namedview
     id="namedview1"
     pagecolor="#505050"
     bordercolor="#eeeeee"
     borderopacity="1"
     inkscape:showpageshadow="0"
     inkscape:pageopacity="0"
     inkscape:pagecheckerboard="0"
     inkscape:deskcolor="#505050"
     inkscape:document-units="mm"
     inkscape:zoom="26.24"
     inkscape:cx="5.9260671"
     inkscape:cy="12.442835"
     inkscape:window-width="1920"
     inkscape:window-height="1017"
     inkscape:window-x="-8"
     inkscape:window-y="-8"
     inkscape:window-maximized="1"
     inkscape:current-layer="layer1" /><defs
     id="defs1"><inkscape:path-effect
       effect="bspline"
       id="path-effect7"
       is_visible="true"
       lpeversion="1.3"
       weight="33.333333"
       steps="2"
       helper_size="0"
       apply_no_weight="true"
       apply_with_weight="true"
       only_selected="false"
       uniform="false" /><inkscape:path-effect
       effect="bspline"
       id="path-effect6"
       is_visible="true"
       lpeversion="1.3"
       weight="33.333333"
       steps="2"
       helper_size="0"
       apply_no_weight="true"
       apply_with_weight="true"
       only_selected="false"
       uniform="false" /><inkscape:path-effect
       effect="bspline"
       id="path-effect5"
       is_visible="true"
       lpeversion="1.3"
       weight="33.333333"
       steps="2"
       helper_size="0"
       apply_no_weight="true"
       apply_with_weight="true"
       only_selected="false"
       uniform="false" /><inkscape:path-effect
       effect="bspline"
       id="path-effect4"
       is_visible="true"
       lpeversion="1.3"
       weight="33.333333"
       steps="2"
       helper_size="0"
       apply_no_weight="true"
       apply_with_weight="true"
       only_selected="false"
       uniform="false" /><inkscape:path-effect
       effect="bspline"
       id="path-effect3"
       is_visible="true"
       lpeversion="1.3"
       weight="33.333333"
       steps="2"
       helper_size="0"
       apply_no_weight="true"
       apply_with_weight="true"
       only_selected="false"
       uniform="false" /><inkscape:path-effect
       effect="bspline"
       id="path-effect2"
       is_visible="true"
       lpeversion="1.3"
       weight="33.333333"
       steps="2"
       helper_size="0"
       apply_no_weight="true"
       apply_with_weight="true"
       only_selected="false"
       uniform="false" /><inkscape:path-effect
       effect="bspline"
       id="path-effect3-5"
       is_visible="true"
       lpeversion="1.3"
       weight="33.333333"
       steps="2"
       helper_size="0"
       apply_no_weight="true"
       apply_with_weight="true"
       only_selected="false"
       uniform="false" /><inkscape:path-effect
       effect="bspline"
       id="path-effect4-2"
       is_visible="true"
       lpeversion="1.3"
       weight="33.333333"
       steps="2"
       helper_size="0"
       apply_no_weight="true"
       apply_with_weight="true"
       only_selected="false"
       uniform="false" /><inkscape:path-effect
       effect="bspline"
       id="path-effect5-7"
       is_visible="true"
       lpeversion="1.3"
       weight="33.333333"
       steps="2"
       helper_size="0"
       apply_no_weight="true"
       apply_with_weight="true"
       only_selected="false"
       uniform="false" /><inkscape:path-effect
       effect="bspline"
       id="path-effect5-7-2"
       is_visible="true"
       lpeversion="1.3"
       weight="33.333333"
       steps="2"
       helper_size="0"
       apply_no_weight="true"
       apply_with_weight="true"
       only_selected="false"
       uniform="false" /><inkscape:path-effect
       effect="bspline"
       id="path-effect4-2-1"
       is_visible="true"
       lpeversion="1.3"
       weight="33.333333"
       steps="2"
       helper_size="0"
       apply_no_weight="true"
       apply_with_weight="true"
       only_selected="false"
       uniform="false" /><inkscape:path-effect
       effect="bspline"
       id="path-effect3-5-6"
       is_visible="true"
       lpeversion="1.3"
       weight="33.333333"
       steps="2"
       helper_size="0"
       apply_no_weight="true"
       apply_with_weight="true"
       only_selected="false"
       uniform="false" /><inkscape:path-effect
       effect="bspline"
       id="path-effect6-9"
       is_visible="true"
       lpeversion="1.3"
       weight="33.333333"
       steps="2"
       helper_size="0"
       apply_no_weight="true"
       apply_with_weight="true"
       only_selected="false"
       uniform="false" /><inkscape:path-effect
       effect="bspline"
       id="path-effect3-5-4"
       is_visible="true"
       lpeversion="1.3"
       weight="33.333333"
       steps="2"
       helper_size="0"
       apply_no_weight="true"
       apply_with_weight="true"
       only_selected="false"
       uniform="false" /><inkscape:path-effect
       effect="bspline"
       id="path-effect3-5-3"
       is_visible="true"
       lpeversion="1.3"
       weight="33.333333"
       steps="2"
       helper_size="0"
       apply_no_weight="true"
       apply_with_weight="true"
       only_selected="false"
       uniform="false" /></defs><g
     inkscape:label="Layer 1"
     inkscape:groupmode="layer"
     id="layer1"><path
       style="opacity:0.507092;fill:none;stroke-width:0.264583"
       d="m 5.0453311,55.152181 c 0,0 0,0 0,0 0.086615,-3.890463 0.1732301,-7.780928 1.4003017,-8.668711 1.2270715,-0.887783 3.5945032,1.227027 4.7638062,3.374383 1.169303,2.147355 1.14043,4.327125 0.844491,5.139137 -0.29594,0.812013 -0.858926,0.256241 -1.385839,-0.220146 C 10.141179,54.300457 9.6503689,53.90348 9.2028527,53.69416 8.7553364,53.48484 8.3511413,53.463187 7.9144519,53.585895 c -0.4366894,0.122708 -0.905845,0.389766 -1.2775706,0.613523 -0.3717257,0.223758 -0.646002,0.404203 -0.8950223,0.55578 -0.2490204,0.151578 -0.4727718,0.274281 -0.5846498,0.335633 -0.1118781,0.06135 -0.1118781,0.06135 -0.1118781,0.06135 z"
       id="path2"
       inkscape:path-effect="#path-effect2"
       inkscape:original-d="m 5.0453311,55.152181 c 0,0 0,0 0,0 0,0 0.1732301,-7.780928 0.2598451,-11.67139 2.3675276,2.114897 4.7349598,4.229706 7.1024398,6.34456 -0.02887,2.179857 -0.05774,4.359627 -0.08662,6.539442 -0.563004,-0.555792 -1.125991,-1.111563 -1.68899,-1.667344 -0.490828,-0.396991 -0.9816375,-0.793969 -1.4724566,-1.190955 -0.4042121,-0.02167 -0.8084079,-0.04331 -1.2126118,-0.06496 -0.4691745,0.26707 -0.9383305,0.534127 -1.4074958,0.80119 -0.2742866,0.180451 -0.5485624,0.360897 -0.8228435,0.541345 -0.2237603,0.122706 -0.4475115,0.245409 -0.6712672,0.368115 z"
       transform="matrix(0.08017205,0,0,0.08017205,-0.03557101,-0.21865206)" /><path
       style="opacity:0.507092;fill:#ffffff;fill-opacity:1;stroke-width:0.264583"
       d="m 38.248216,15.617766 c 1.674061,-0.837031 3.348123,-1.674061 4.006515,-2.745882 0.658392,-1.07182 0.30113,-2.378379 -0.05614,-3.6849629 0,0 7.165798,2.2048609 7.165798,2.2048609 0.5308,0.173531 1.061601,0.347062 1.725109,0.602257 0.663507,0.255196 1.459691,0.592043 1.750608,0.9289 0.290918,0.336857 0.07656,0.673705 -0.10718,0.867651 -0.18374,0.193947 -0.336852,0.244984 -0.918701,0.357271 -0.581849,0.112286 -1.59239,0.285813 -2.602951,0.459344 -0.469553,0.03062 -0.939106,0.06125 -1.658758,0.535914 -0.719652,0.474667 -1.689363,1.393341 -3.281785,1.54645 -1.592421,0.153109 -3.807446,-0.459341 -6.022515,-1.071802 z"
       id="path4"
       inkscape:path-effect="#path-effect4"
       inkscape:original-d="m 38.248216,15.617766 c 0,0 3.348123,-1.674061 5.022184,-2.511092 -0.357278,-1.30661 -1.071809,-3.9197529 -1.071809,-3.9197529 0,0 7.165798,2.2048609 7.165798,2.2048609 0,0 1.061601,0.347062 1.5924,0.520592 0.796216,0.336861 1.5924,0.673708 2.3886,1.010562 -0.214366,0.33686 -0.428723,0.673707 -0.643083,1.010561 -0.15312,0.05104 -0.306232,0.102077 -0.459349,0.153116 -1.010581,0.173534 -3.031683,0.520592 -3.031683,0.520592 0,0 -0.939106,0.06125 -1.40866,0.09187 -0.969751,0.91871 -1.939462,1.837384 -2.909191,2.756076 -2.215113,-0.612473 -6.645207,-1.837384 -6.645207,-1.837384 z"
       transform="matrix(0.08017205,0,0,0.08017205,-0.03557101,-0.21865206)" /><path
       style="opacity:0.507092;fill:#ffffff;fill-opacity:1;stroke-width:0.264583"
       d="m 45.776094,18.102561 c 0.86615,-0.866151 1.732301,-1.732303 3.811096,-2.064325 2.078796,-0.332023 5.370106,-0.129925 8.661481,0.07218 0.375332,0.129923 0.750665,0.259846 1.609611,0.98887 0.858946,0.729023 2.201454,2.057096 4.460697,4.525663 2.259243,2.468567 5.435066,6.077458 6.149624,10.4227 0.714558,4.345243 -1.032146,9.426564 -2.97379,13.374797 -1.941643,3.948234 -4.078106,6.763169 -5.550571,8.315027 -1.472466,1.551857 -2.280857,1.840567 -3.089265,2.129284 0.476383,-0.534127 0.952766,-1.068253 1.689004,-2.14374 0.736239,-1.075487 1.732295,-2.692272 2.338602,-5.160835 0.606308,-2.468564 0.822841,-5.788744 0.440281,-9.00797 -0.38256,-3.219226 -1.364179,-6.337309 -3.464628,-9.260596 -2.100449,-2.923288 -5.319579,-5.65161 -7.85309,-7.650988 -2.533511,-1.999379 -4.381263,-3.269709 -6.229052,-4.540064 z"
       id="path5"
       inkscape:path-effect="#path-effect5"
       inkscape:original-d="m 45.776094,18.102561 c 0,0 1.732301,-1.732303 2.598451,-2.598454 3.291441,0.202106 9.874126,0.606306 9.874126,0.606306 0,0 0.750665,0.259845 1.125995,0.389768 1.342562,1.328125 2.685071,2.656197 4.027604,3.984296 3.175953,3.609035 6.351775,7.217927 9.527664,10.826891 -1.746774,5.081521 -3.493476,10.162842 -5.240215,15.24426 -2.136548,2.81505 -4.273013,5.629984 -6.409518,8.444976 -0.808424,0.288724 -2.425224,0.86615 -2.425224,0.86615 0,0 0.952767,-1.068252 1.429149,-1.60238 0.996093,-1.616847 1.992149,-3.233632 2.988223,-4.850445 0.21654,-3.320314 0.433075,-6.640494 0.649613,-9.960739 -0.98166,-3.118207 -1.963277,-6.23629 -2.944916,-9.354434 -3.219259,-2.728431 -6.438389,-5.456753 -9.657585,-8.18513 -1.847826,-1.27038 -5.543367,-3.811065 -5.543367,-3.811065 z"
       transform="matrix(0.08017205,0,0,0.08017205,-0.03557101,-0.21865206)" /><path
       style="opacity:0.507092;fill:#ffffff;fill-opacity:1;stroke-width:0.264583"
       d="m 11.454593,16.99598 c 1.99432,0.24999 3.988641,0.49998 6.168306,0.339106 2.179665,-0.160874 5.017675,-0.84696 6.792076,-2.004497 1.774402,-1.157536 4.259593,-3.944058 5.111348,-6.0187154 0.851755,-2.0746577 0.484286,-3.9017978 0.11681,-5.7289743 2.541715,1.4699075 5.083429,2.9398145 7.625144,4.409722 1.347415,0.8472382 2.694831,1.694477 2.97043,2.6642177 0.275599,0.969742 -0.520585,2.061943 -1.071803,2.684614 -0.551218,0.62267 -0.857442,0.775782 -1.342315,0.90338 -0.484872,0.127597 -1.148358,0.229672 -1.811858,0.331749 0.296023,-0.336854 0.592045,-0.673708 0.888068,-1.010562 0.418515,-0.581838 0.83703,-1.163676 0.612454,-1.847599 -0.224577,-0.683923 -1.092215,-1.4699 -1.883317,-1.883312 -0.791103,-0.4134117 -1.505626,-0.4542416 -2.184445,-0.2194594 -0.678819,0.2347822 -1.32189,0.7451554 -1.684264,1.3525204 -0.362374,0.607365 -0.444033,1.311681 -0.31133,1.765925 0.132703,0.454244 0.479758,0.658394 0.785991,0.607352 0.306234,-0.05104 0.571627,-0.357265 0.64308,-0.658395 0.07145,-0.30113 -0.05104,-0.597147 -0.07655,-0.908485 -0.02552,-0.311338 0.04594,-0.637977 0.377691,-0.821716 0.331756,-0.183739 0.92379,-0.224568 1.459698,-0.158216 0.535909,0.06635 1.015659,0.239878 1.265748,0.561425 0.250089,0.321548 0.270505,0.791091 0.07145,1.265754 -0.199054,0.474663 -0.61756,0.954414 -1.138159,1.464804 -0.520599,0.510391 -1.143255,1.051386 -1.847594,1.556671 -0.704339,0.505286 -1.490316,0.974831 -2.728747,1.502568 -1.238431,0.527738 -2.929199,1.113625 -5.137158,1.541313 -2.207958,0.427687 -4.932843,0.697125 -7.29753,0.388881 -2.364688,-0.308244 -4.368934,-1.194148 -6.37322,-2.080071 z"
       id="path3-1"
       inkscape:path-effect="#path-effect3-5"
       inkscape:original-d="m 11.454593,16.99598 c 0,0 3.988641,0.49998 5.982961,0.74997 2.36501,-0.571738 5.20302,-1.257824 7.095028,-1.715215 1.656795,-1.857682 4.141986,-4.644204 6.21298,-6.9663062 -0.367483,-1.827213 -1.102429,-5.4815295 -1.102429,-5.4815295 2.541715,1.4699073 5.083429,2.9398147 7.625144,4.409722 0,0 2.694831,1.6944766 4.042245,2.5417147 -0.796215,1.092245 -1.5924,2.184446 -2.3886,3.276669 -0.306236,0.153118 -0.61246,0.306231 -0.918691,0.459346 -0.663514,0.102079 -1.9905,0.306231 -1.9905,0.306231 0.296023,-0.336854 0.592045,-0.673708 0.888068,-1.010562 0,0 0.837031,-1.163676 1.255546,-1.745515 -0.867669,-0.786007 -1.735307,-1.571984 -2.60296,-2.3579762 -0.714552,-0.040831 -1.429075,-0.081661 -2.143614,-0.1224922 -0.643099,0.5103947 -1.286169,1.0207694 -1.929255,1.5311534 -0.08166,0.704345 -0.163322,1.408661 -0.244983,2.112992 0.347067,0.204158 0.694121,0.408308 1.041183,0.612461 0.265406,-0.306237 0.530799,-0.612461 0.7962,-0.918692 -0.122494,-0.296029 -0.244985,-0.592046 -0.367477,-0.888069 0.07146,-0.326652 0.142907,-0.653292 0.214363,-0.979938 0.592058,-0.04083 1.184092,-0.08166 1.776137,-0.122492 0.479772,0.173534 0.959522,0.347061 1.439283,0.520592 0.02043,0.469563 0.04083,0.939107 0.06125,1.408661 -0.418526,0.479771 -0.837031,0.959523 -1.255546,1.439284 -0.622684,0.541019 -1.245338,1.082016 -1.868009,1.623023 -0.786008,0.469563 -1.571985,0.939108 -2.357977,1.408661 -1.69087,0.585922 -3.381638,1.171809 -5.072508,1.757731 -2.725047,0.269453 -5.449932,0.538891 -8.17498,0.808344 -2.004327,-0.88594 -6.012859,-2.657768 -6.012859,-2.657768 z"
       transform="matrix(-0.05084239,0.06198877,-0.06198877,-0.05084239,7.8325344,3.084826)"
       sodipodi:nodetypes="ccccccccccccccccccccccccccccc" /><path
       style="opacity:0.507092;fill:#ffffff;fill-opacity:1;stroke-width:0.264583"
       d="m 11.454593,16.99598 c 1.99432,0.24999 3.988641,0.49998 6.168306,0.339106 2.179665,-0.160874 5.017675,-0.84696 6.792076,-2.004497 1.774402,-1.157536 4.259593,-3.944058 5.111348,-6.0187154 0.851755,-2.0746577 0.484286,-3.9017978 0.11681,-5.7289743 2.541715,1.4699075 5.083429,2.9398145 7.625144,4.409722 1.347415,0.8472382 2.694831,1.694477 2.97043,2.6642177 0.275599,0.969742 -0.520585,2.061943 -1.071803,2.684614 -0.551218,0.62267 -0.857442,0.775782 -1.342315,0.90338 -0.484872,0.127597 -1.148358,0.229672 -1.811858,0.331749 0.296023,-0.336854 0.592045,-0.673708 0.888068,-1.010562 0.418515,-0.581838 0.83703,-1.163676 0.612454,-1.847599 -0.224577,-0.683923 -1.092215,-1.4699 -1.883317,-1.883312 -0.791103,-0.4134117 -1.505626,-0.4542416 -2.184445,-0.2194594 -0.678819,0.2347822 -1.32189,0.7451554 -1.684264,1.3525204 -0.362374,0.607365 -0.444033,1.311681 -0.31133,1.765925 0.132703,0.454244 0.479758,0.658394 0.785991,0.607352 0.306234,-0.05104 0.571627,-0.357265 0.64308,-0.658395 0.07145,-0.30113 -0.05104,-0.597147 -0.07655,-0.908485 -0.02552,-0.311338 0.04594,-0.637977 0.377691,-0.821716 0.331756,-0.183739 0.92379,-0.224568 1.459698,-0.158216 0.535909,0.06635 1.015659,0.239878 1.265748,0.561425 0.250089,0.321548 0.270505,0.791091 0.07145,1.265754 -0.199054,0.474663 -0.61756,0.954414 -1.138159,1.464804 -0.520599,0.510391 -1.143255,1.051386 -1.847594,1.556671 -0.704339,0.505286 -1.490316,0.974831 -2.728747,1.502568 -1.238431,0.527738 -2.929199,1.113625 -5.137158,1.541313 -2.207958,0.427687 -4.932843,0.697125 -7.29753,0.388881 -2.364688,-0.308244 -4.368934,-1.194148 -6.37322,-2.080071 z"
       id="path3-1-11"
       inkscape:path-effect="#path-effect3-5-3"
       inkscape:original-d="m 11.454593,16.99598 c 0,0 3.988641,0.49998 5.982961,0.74997 2.36501,-0.571738 5.20302,-1.257824 7.095028,-1.715215 1.656795,-1.857682 4.141986,-4.644204 6.21298,-6.9663062 -0.367483,-1.827213 -1.102429,-5.4815295 -1.102429,-5.4815295 2.541715,1.4699073 5.083429,2.9398147 7.625144,4.409722 0,0 2.694831,1.6944766 4.042245,2.5417147 -0.796215,1.092245 -1.5924,2.184446 -2.3886,3.276669 -0.306236,0.153118 -0.61246,0.306231 -0.918691,0.459346 -0.663514,0.102079 -1.9905,0.306231 -1.9905,0.306231 0.296023,-0.336854 0.592045,-0.673708 0.888068,-1.010562 0,0 0.837031,-1.163676 1.255546,-1.745515 -0.867669,-0.786007 -1.735307,-1.571984 -2.60296,-2.3579762 -0.714552,-0.040831 -1.429075,-0.081661 -2.143614,-0.1224922 -0.643099,0.5103947 -1.286169,1.0207694 -1.929255,1.5311534 -0.08166,0.704345 -0.163322,1.408661 -0.244983,2.112992 0.347067,0.204158 0.694121,0.408308 1.041183,0.612461 0.265406,-0.306237 0.530799,-0.612461 0.7962,-0.918692 -0.122494,-0.296029 -0.244985,-0.592046 -0.367477,-0.888069 0.07146,-0.326652 0.142907,-0.653292 0.214363,-0.979938 0.592058,-0.04083 1.184092,-0.08166 1.776137,-0.122492 0.479772,0.173534 0.959522,0.347061 1.439283,0.520592 0.02043,0.469563 0.04083,0.939107 0.06125,1.408661 -0.418526,0.479771 -0.837031,0.959523 -1.255546,1.439284 -0.622684,0.541019 -1.245338,1.082016 -1.868009,1.623023 -0.786008,0.469563 -1.571985,0.939108 -2.357977,1.408661 -1.69087,0.585922 -3.381638,1.171809 -5.072508,1.757731 -2.725047,0.269453 -5.449932,0.538891 -8.17498,0.808344 -2.004327,-0.88594 -6.012859,-2.657768 -6.012859,-2.657768 z"
       transform="matrix(-0.02815576,-0.07506537,0.07506537,-0.02815576,0.88925937,7.6218161)"
       sodipodi:nodetypes="ccccccccccccccccccccccccccccc" /><path
       style="opacity:0.507092;fill:#ffffff;fill-opacity:1;stroke-width:0.264583"
       d="m 11.454593,16.99598 c 1.99432,0.24999 3.988641,0.49998 6.168306,0.339106 2.179665,-0.160874 5.017675,-0.84696 6.792076,-2.004497 1.774402,-1.157536 4.259593,-3.944058 5.111348,-6.0187154 0.851755,-2.0746577 0.484286,-3.9017978 0.11681,-5.7289743 2.541715,1.4699075 5.083429,2.9398145 7.625144,4.409722 1.347415,0.8472382 2.694831,1.694477 2.97043,2.6642177 0.275599,0.969742 -0.520585,2.061943 -1.071803,2.684614 -0.551218,0.62267 -0.857442,0.775782 -1.342315,0.90338 -0.484872,0.127597 -1.148358,0.229672 -1.811858,0.331749 0.296023,-0.336854 0.592045,-0.673708 0.888068,-1.010562 0.418515,-0.581838 0.83703,-1.163676 0.612454,-1.847599 -0.224577,-0.683923 -1.092215,-1.4699 -1.883317,-1.883312 -0.791103,-0.4134117 -1.505626,-0.4542416 -2.184445,-0.2194594 -0.678819,0.2347822 -1.32189,0.7451554 -1.684264,1.3525204 -0.362374,0.607365 -0.444033,1.311681 -0.31133,1.765925 0.132703,0.454244 0.479758,0.658394 0.785991,0.607352 0.306234,-0.05104 0.571627,-0.357265 0.64308,-0.658395 0.07145,-0.30113 -0.05104,-0.597147 -0.07655,-0.908485 -0.02552,-0.311338 0.04594,-0.637977 0.377691,-0.821716 0.331756,-0.183739 0.92379,-0.224568 1.459698,-0.158216 0.535909,0.06635 1.015659,0.239878 1.265748,0.561425 0.250089,0.321548 0.270505,0.791091 0.07145,1.265754 -0.199054,0.474663 -0.61756,0.954414 -1.138159,1.464804 -0.520599,0.510391 -1.143255,1.051386 -1.847594,1.556671 -0.704339,0.505286 -1.490316,0.974831 -2.728747,1.502568 -1.238431,0.527738 -2.929199,1.113625 -5.137158,1.541313 -2.207958,0.427687 -4.932843,0.697125 -7.29753,0.388881 -2.364688,-0.308244 -4.368934,-1.194148 -6.37322,-2.080071 z"
       id="path3-1-1"
       inkscape:path-effect="#path-effect3-5-4"
       inkscape:original-d="m 11.454593,16.99598 c 0,0 3.988641,0.49998 5.982961,0.74997 2.36501,-0.571738 5.20302,-1.257824 7.095028,-1.715215 1.656795,-1.857682 4.141986,-4.644204 6.21298,-6.9663062 -0.367483,-1.827213 -1.102429,-5.4815295 -1.102429,-5.4815295 2.541715,1.4699073 5.083429,2.9398147 7.625144,4.409722 0,0 2.694831,1.6944766 4.042245,2.5417147 -0.796215,1.092245 -1.5924,2.184446 -2.3886,3.276669 -0.306236,0.153118 -0.61246,0.306231 -0.918691,0.459346 -0.663514,0.102079 -1.9905,0.306231 -1.9905,0.306231 0.296023,-0.336854 0.592045,-0.673708 0.888068,-1.010562 0,0 0.837031,-1.163676 1.255546,-1.745515 -0.867669,-0.786007 -1.735307,-1.571984 -2.60296,-2.3579762 -0.714552,-0.040831 -1.429075,-0.081661 -2.143614,-0.1224922 -0.643099,0.5103947 -1.286169,1.0207694 -1.929255,1.5311534 -0.08166,0.704345 -0.163322,1.408661 -0.244983,2.112992 0.347067,0.204158 0.694121,0.408308 1.041183,0.612461 0.265406,-0.306237 0.530799,-0.612461 0.7962,-0.918692 -0.122494,-0.296029 -0.244985,-0.592046 -0.367477,-0.888069 0.07146,-0.326652 0.142907,-0.653292 0.214363,-0.979938 0.592058,-0.04083 1.184092,-0.08166 1.776137,-0.122492 0.479772,0.173534 0.959522,0.347061 1.439283,0.520592 0.02043,0.469563 0.04083,0.939107 0.06125,1.408661 -0.418526,0.479771 -0.837031,0.959523 -1.255546,1.439284 -0.622684,0.541019 -1.245338,1.082016 -1.868009,1.623023 -0.786008,0.469563 -1.571985,0.939108 -2.357977,1.408661 -1.69087,0.585922 -3.381638,1.171809 -5.072508,1.757731 -2.725047,0.269453 -5.449932,0.538891 -8.17498,0.808344 -2.004327,-0.88594 -6.012859,-2.657768 -6.012859,-2.657768 z"
       transform="matrix(0.0801479,0.00196762,-0.00196762,0.0801479,0.01637366,-0.3063519)"
       sodipodi:nodetypes="ccccccccccccccccccccccccccccc" /><path
       style="opacity:0.507092;fill:#ffffff;fill-opacity:1;stroke-width:0.264583"
       d="m 38.248216,15.617766 c 1.674061,-0.837031 3.348123,-1.674061 4.006515,-2.745882 0.658392,-1.07182 0.30113,-2.378379 -0.05614,-3.6849629 0,0 7.165798,2.2048609 7.165798,2.2048609 0.5308,0.173531 1.061601,0.347062 1.725109,0.602257 0.663507,0.255196 1.459691,0.592043 1.750608,0.9289 0.290918,0.336857 0.07656,0.673705 -0.10718,0.867651 -0.18374,0.193947 -0.336852,0.244984 -0.918701,0.357271 -0.581849,0.112286 -1.59239,0.285813 -2.602951,0.459344 -0.469553,0.03062 -0.939106,0.06125 -1.658758,0.535914 -0.719652,0.474667 -1.689363,1.393341 -3.281785,1.54645 -1.592421,0.153109 -3.807446,-0.459341 -6.022515,-1.071802 z"
       id="path4-4"
       inkscape:path-effect="#path-effect4-2"
       inkscape:original-d="m 38.248216,15.617766 c 0,0 3.348123,-1.674061 5.022184,-2.511092 -0.357278,-1.30661 -1.071809,-3.9197529 -1.071809,-3.9197529 0,0 7.165798,2.2048609 7.165798,2.2048609 0,0 1.061601,0.347062 1.5924,0.520592 0.796216,0.336861 1.5924,0.673708 2.3886,1.010562 -0.214366,0.33686 -0.428723,0.673707 -0.643083,1.010561 -0.15312,0.05104 -0.306232,0.102077 -0.459349,0.153116 -1.010581,0.173534 -3.031683,0.520592 -3.031683,0.520592 0,0 -0.939106,0.06125 -1.40866,0.09187 -0.969751,0.91871 -1.939462,1.837384 -2.909191,2.756076 -2.215113,-0.612473 -6.645207,-1.837384 -6.645207,-1.837384 z"
       transform="matrix(-0.05084239,0.06198877,-0.06198877,-0.05084239,7.8325344,3.084826)" /><path
       style="opacity:0.507092;fill:#ffffff;fill-opacity:1;stroke-width:0.264583"
       d="m 45.776094,18.102561 c 0.86615,-0.866151 1.732301,-1.732303 3.811096,-2.064325 2.078796,-0.332023 5.370106,-0.129925 8.661481,0.07218 0.375332,0.129923 0.750665,0.259846 1.609611,0.98887 0.858946,0.729023 2.201454,2.057096 4.460697,4.525663 2.259243,2.468567 5.435066,6.077458 6.149624,10.4227 0.714558,4.345243 -1.032146,9.426564 -2.97379,13.374797 -1.941643,3.948234 -4.078106,6.763169 -5.550571,8.315027 -1.472466,1.551857 -2.280857,1.840567 -3.089265,2.129284 0.476383,-0.534127 0.952766,-1.068253 1.689004,-2.14374 0.736239,-1.075487 1.732295,-2.692272 2.338602,-5.160835 0.606308,-2.468564 0.822841,-5.788744 0.440281,-9.00797 -0.38256,-3.219226 -1.364179,-6.337309 -3.464628,-9.260596 -2.100449,-2.923288 -5.319579,-5.65161 -7.85309,-7.650988 -2.533511,-1.999379 -4.381263,-3.269709 -6.229052,-4.540064 z"
       id="path5-2"
       inkscape:path-effect="#path-effect5-7"
       inkscape:original-d="m 45.776094,18.102561 c 0,0 1.732301,-1.732303 2.598451,-2.598454 3.291441,0.202106 9.874126,0.606306 9.874126,0.606306 0,0 0.750665,0.259845 1.125995,0.389768 1.342562,1.328125 2.685071,2.656197 4.027604,3.984296 3.175953,3.609035 6.351775,7.217927 9.527664,10.826891 -1.746774,5.081521 -3.493476,10.162842 -5.240215,15.24426 -2.136548,2.81505 -4.273013,5.629984 -6.409518,8.444976 -0.808424,0.288724 -2.425224,0.86615 -2.425224,0.86615 0,0 0.952767,-1.068252 1.429149,-1.60238 0.996093,-1.616847 1.992149,-3.233632 2.988223,-4.850445 0.21654,-3.320314 0.433075,-6.640494 0.649613,-9.960739 -0.98166,-3.118207 -1.963277,-6.23629 -2.944916,-9.354434 -3.219259,-2.728431 -6.438389,-5.456753 -9.657585,-8.18513 -1.847826,-1.27038 -5.543367,-3.811065 -5.543367,-3.811065 z"
       transform="matrix(-0.05084239,0.06198877,-0.06198877,-0.05084239,7.8325344,3.084826)" /><path
       style="opacity:0.507092;fill:#ffffff;fill-opacity:1;stroke-width:0.264583"
       d="m 38.248216,15.617766 c 1.674061,-0.837031 3.348123,-1.674061 4.006515,-2.745882 0.658392,-1.07182 0.30113,-2.378379 -0.05614,-3.6849629 0,0 7.165798,2.2048609 7.165798,2.2048609 0.5308,0.173531 1.061601,0.347062 1.726936,0.691546 0.665334,0.344485 1.465155,0.859892 1.75608,1.196753 0.290925,0.33686 0.07291,0.495137 -0.24494,0.639701 -0.317855,0.144565 -0.735522,0.275405 -1.317372,0.387692 -0.58185,0.112287 -1.327827,0.206008 -2.073819,0.299731 -0.469553,0.03062 -0.939106,0.06125 -1.658758,0.535914 -0.719652,0.474667 -1.689363,1.393341 -3.281785,1.54645 -1.592421,0.153109 -3.807446,-0.459341 -6.022515,-1.071802 z"
       id="path4-4-7"
       inkscape:path-effect="#path-effect4-2-1"
       inkscape:original-d="m 38.248216,15.617766 c 0,0 3.348123,-1.674061 5.022184,-2.511092 -0.357278,-1.30661 -1.071809,-3.9197529 -1.071809,-3.9197529 l 7.165798,2.2048609 c 0,0 1.061601,0.347062 1.5924,0.520592 0.79987,0.515439 1.599691,1.030846 2.39956,1.546285 -0.218019,0.158282 -0.436029,0.316559 -0.654043,0.474838 -0.417696,0.130849 -0.835363,0.26169 -1.253057,0.392539 -0.746007,0.09372 -2.237975,0.281169 -2.237975,0.281169 0,0 -0.939106,0.06125 -1.40866,0.09187 -0.969751,0.91871 -1.939462,1.837384 -2.909191,2.756076 -2.215113,-0.612473 -6.645207,-1.837384 -6.645207,-1.837384 z"
       transform="matrix(-0.0326461,-0.07322425,0.07322425,-0.0326461,1.0803866,7.6030343)"
       sodipodi:nodetypes="ccccccccccccc" /><path
       style="opacity:0.507092;fill:#ffffff;fill-opacity:1;stroke-width:0.264583"
       d="m 45.776094,18.102561 c 0.86615,-0.866151 1.732301,-1.732303 3.811096,-2.064325 2.078796,-0.332023 5.370106,-0.129925 8.661481,0.07218 0.375332,0.129923 0.750665,0.259846 1.609611,0.98887 0.858946,0.729023 2.201454,2.057096 4.460697,4.525663 2.259243,2.468567 5.435066,6.077458 6.241811,10.490592 0.806744,4.413135 -0.755562,9.630127 -2.174016,13.488224 -1.418454,3.858096 -2.692883,6.356828 -4.109436,8.194189 -1.416553,1.837362 -2.975088,3.01315 -4.533654,4.188963 0.75653,-1.1272 1.513045,-2.254379 2.223446,-3.807734 0.710401,-1.553354 1.37462,-3.532724 1.782928,-6.339721 0.408308,-2.806997 0.560659,-6.441355 0.05583,-9.536056 -0.504827,-3.0947 -1.666836,-5.649675 -3.85747,-8.291376 -2.190633,-2.641702 -5.409763,-5.370024 -7.943274,-7.369402 -2.533511,-1.999379 -4.381263,-3.269709 -6.229052,-4.540064 z"
       id="path5-2-6"
       inkscape:path-effect="#path-effect5-7-2"
       inkscape:original-d="m 45.776094,18.102561 c 0,0 1.732301,-1.732303 2.598451,-2.598454 3.291441,0.202106 9.874126,0.606306 9.874126,0.606306 0,0 0.750665,0.259845 1.125995,0.389768 1.342562,1.328125 2.685071,2.656197 4.027604,3.984296 3.175953,3.609035 6.351775,7.217927 9.527664,10.826891 -1.5624,5.217305 -3.124706,10.434297 -4.687106,15.651605 -1.274508,2.498885 -2.548937,4.997617 -3.823445,7.496503 -1.558598,1.175837 -4.675699,3.527438 -4.675699,3.527438 0,0 1.513045,-2.254379 2.269589,-3.381601 0.664259,-1.979487 1.328478,-3.958857 1.992736,-5.938346 0.152357,-3.634505 0.304708,-7.268863 0.457062,-10.903292 -1.162008,-2.554972 -2.324017,-5.109947 -3.486025,-7.664919 -3.219259,-2.728431 -6.438389,-5.456753 -9.657585,-8.18513 -1.847826,-1.27038 -5.543367,-3.811065 -5.543367,-3.811065 z"
       transform="matrix(-0.02897966,-0.0675345,0.0711024,-0.02737128,0.9972309,7.1925957)"
       sodipodi:nodetypes="ccccccccccccccc" /><path
       style="display:inline;opacity:0.507092;fill:#ffffff;fill-opacity:1;stroke-width:0.264583"
       d="m 41.068243,63.370581 c 0,0 -0.171116,-6.730627 -0.171116,-6.730627 -0.399275,-0.03803 -0.79855,-0.07605 -2.509757,-0.427802 -1.711207,-0.351749 -4.734225,-1.017193 -7.253478,-2.310101 -2.519252,-1.292908 -4.534599,-3.213191 -4.943368,-6.721154 -0.408769,-3.507963 0.789031,-8.603367 3.374849,-11.654975 2.585817,-3.051609 6.559472,-4.059282 10.251202,-4.387266 3.69173,-0.327984 7.101355,0.02373 9.354399,1.231079 2.253044,1.207349 3.349462,3.270251 4.445901,5.333194 -0.209144,-1.045719 -0.418289,-2.091439 -1.349946,-3.764612 -0.931658,-1.673173 -2.585763,-3.97371 -6.397944,-4.981399 -3.812181,-1.00769 -9.782166,-0.7225 -14.326322,1.264403 -4.544157,1.986903 -7.662239,5.675367 -8.869563,9.36394 -1.207324,3.688573 -0.503854,7.377037 0.674974,10.248032 1.178827,2.870995 2.832931,4.924365 4.487085,6.369368 1.654155,1.445002 3.308226,2.281544 5.119259,2.775894 1.811032,0.49435 3.778844,0.646451 5.746697,0.798556 0.24717,0.684471 0.494336,1.368928 0.888865,1.967852 0.394529,0.598924 0.936391,1.112266 1.478263,1.625618 z"
       id="path6"
       inkscape:path-effect="#path-effect6"
       inkscape:original-d="m 41.068243,63.370581 -0.171116,-6.730627 c 0,0 -0.79855,-0.07605 -1.197824,-0.11408 -3.02314,-0.66547 -6.046158,-1.330915 -9.069237,-1.996372 -2.015426,-1.920359 -4.030774,-3.840641 -6.046159,-5.760963 1.197848,-5.095605 2.395647,-10.191009 3.593472,-15.286513 3.973811,-1.007714 7.947466,-2.015385 11.921198,-3.023079 3.409728,0.351726 6.819353,0.703439 10.22898,1.055153 1.096459,2.062985 3.289318,6.188829 3.289318,6.188829 0,0 -0.418288,-2.091439 -0.627433,-3.137157 -1.654169,-2.300629 -3.308276,-4.601165 -4.962414,-6.901746 -5.970224,0.285202 -11.940209,0.570391 -17.910315,0.855588 -3.118207,3.68861 -6.23629,7.377073 -9.354434,11.065611 0.703498,3.688609 1.406967,7.377073 2.110451,11.06561 1.654171,2.053453 3.308275,4.106823 4.962413,6.160236 1.654171,0.836592 3.308242,1.673134 4.962414,2.509726 1.967893,0.152108 5.903558,0.456314 5.903558,0.456314 0,0 0.494336,1.368928 0.741511,2.053413 0.541883,0.513363 1.625617,1.540057 1.625617,1.540057 z"
       sodipodi:nodetypes="ccccccccccccccccccc"
       transform="matrix(0.08017205,0,0,0.08017205,-0.03557101,-0.21865206)" /><a
       id="a6"
       transform="matrix(0.08017205,0,0,0.08017205,-0.03557101,-0.21865206)"><path
         style="display:inline;opacity:0.507092;fill:#ffffff;fill-opacity:1;stroke-width:0.264583"
         d="m 44.497577,57.15314 c -0.374189,-1.524679 -1.072512,-3.08632 -1.770834,-4.647961 -1.375703,0.24064 -2.751379,0.481275 -4.749214,0.387098 -1.997835,-0.09418 -4.617617,-0.523152 -6.46715,-1.695315 -1.849533,-1.172163 -2.928597,-3.087375 -3.232213,-6.072157 -0.303617,-2.984782 0.168249,-7.03878 2.465501,-9.420504 2.297251,-2.381724 6.419614,-3.090891 10.439246,-2.605055 4.019631,0.485837 7.93605,2.166619 9.285179,4.734692 1.349128,2.568072 0.130779,6.023193 -1.087594,9.478384 2.895652,-2.466247 5.791246,-4.932445 5.673767,-8.302572 -0.117478,-3.370126 -3.247959,-7.643828 -6.561093,-9.747303 -3.313134,-2.103475 -6.808595,-2.03647 -10.304126,-1.969463 0.730823,0.317169 1.577037,0.684417 2.035899,1.169151 0.458861,0.484733 0.874512,1.450496 1.233483,2.284566 -0.989272,-0.770445 -1.968697,-1.53322 -2.814252,-2.034748 -0.845556,-0.501528 -1.523907,-0.722036 -2.209079,-0.944761 -1.901039,0.290217 -3.802059,0.580431 -6.267181,2.558907 -2.465122,1.978475 -5.494191,5.645063 -6.757968,9.35446 -1.263778,3.709397 -0.762145,7.461201 0.260978,10.436143 1.023122,2.974942 2.567643,5.172711 4.112195,7.370524 2.076667,-0.831408 4.15329,-1.662799 6.355022,-1.91103 2.201733,-0.248231 4.528392,0.08672 6.354852,1.196762 1.82646,1.110042 3.152672,2.995168 4.478885,4.880295 -0.05006,-1.487717 -0.100113,-2.975434 -0.474303,-4.500113 z"
         id="path6-7"
         inkscape:path-effect="#path-effect6-9"
         inkscape:original-d="m 44.82171,57.190102 c -0.698322,-1.561641 -1.396645,-3.123282 -2.094967,-4.684923 0,0 -2.751379,0.481275 -4.127109,0.72192 -2.61994,-0.429 -5.239722,-0.857974 -7.85966,-1.286973 -1.079128,-1.915327 -2.158192,-3.830539 -3.237319,-5.745865 0.471894,-4.054238 0.94376,-8.108236 1.415654,-12.162474 4.122609,-0.70921 8.244972,-1.418377 12.367582,-2.127587 3.916653,1.680883 7.833072,3.361666 11.749727,5.042549 -1.218398,3.455261 -3.65512,10.365573 -3.65512,10.365573 0,0 5.791246,-4.932445 8.686956,-7.398741 -3.130668,-4.273957 -6.261148,-8.547659 -9.391815,-12.821617 -3.495601,0.06701 -10.486593,0.20102 -10.486593,0.20102 0,0 1.577037,0.684417 2.192468,0.951508 0.302293,0.702376 1.076914,2.502209 1.076914,2.502209 0,0 -1.968697,-1.53322 -2.967816,-2.311334 -0.691992,-0.224942 -2.055515,-0.668175 -2.055515,-0.668175 0,0 -3.802059,0.580431 -5.703116,0.870651 -3.029187,3.666731 -6.058256,7.333319 -9.087473,11.000087 0.501663,3.752026 1.003295,7.50383 1.504958,11.255858 1.544583,2.197856 4.633655,6.593438 4.633655,6.593438 0,0 4.15329,-1.662799 6.23,-2.494225 2.326755,0.334964 4.653414,0.669915 6.980121,1.004872 1.326213,1.885127 3.978638,5.65538 3.978638,5.65538 0,0 -0.100113,-2.975434 -0.15017,-4.463151 z"
         transform="matrix(-0.73301754,0.3409977,0.36539372,0.78545986,54.32518,-1.4667828)"
         sodipodi:nodetypes="scccccccccccsccccccccscs" /></a></g></svg>
